# xmcd CD database file
#
# Track frame offsets:
#	150
#	16900
#	45350
#	59225
#	82000
#	111862
#	126600
#	168650
#	191825
#
# Disc length: 2942 seconds
#
# Revision: 0
# Processed by: cddbd v1.5.2PL0 Copyright (c) Steve Scherf et al.
# Submitted via: CDex 1.81
#
DISCID=830b7c09
DTITLE=Baly Khan Jazz Orchestra - Introducing the Baly Khan Jazz Orchestra
DYEAR=1900
DGENRE=Jazz
TTITLE0=Hay Burner
TTITLE1=April In Paris
TTITLE2=Little Brown Jug
TTITLE3=Shiny Stockings
TTITLE4=Baly Khan's Boogie
TTITLE5=Sophisticated Lady
TTITLE6=Chica De Espana
TTITLE7=It Don't Mean A Thing
TTITLE8=Chameleon
EXTD=
EXTT0=
EXTT1=
EXTT2=
EXTT3=
EXTT4=
EXTT5=
EXTT6=
EXTT7=
EXTT8=
PLAYORDER=
